<?xml version="1.0" encoding="UTF-8"?>
<!-- Generator: Adobe Illustrator 21.0.2, SVG Export Plug-In . SVG Version: 6.00 Build 0)  -->
<svg version="1.1" id="Layer_1" xmlns="http://www.w3.org/2000/svg" xmlns:xlink="http://www.w3.org/1999/xlink" x="0px" y="0px" viewBox="0 0 100 29.4" style="enable-background:new 0 0 100 29.4;" xml:space="preserve">
<style type="text/css">
	.st0{fill:#45535E;}
	.st1{fill:#F8761F;}
</style>
<path class="st0" d="M0.3,5.6h3.5v7.7h7.3V5.6h3.5v18.9h-3.5v-7.9H3.8v7.9H0.3V5.6z M25.5,18.4c0,1.6-1.3,2.9-2.9,2.9  c-1.6,0-2.9-1.3-2.9-2.9v-8.1h-3.3v8.1c0,3.4,2.8,6.2,6.2,6.2c3.4,0,6.2-2.8,6.2-6.2v-8.1h-3.3V18.4 M38,10.3  c-1.6,0-2.8,0.5-3.9,1.6V5.6h-3.3v11.6c0,4.3,3.1,7.3,6.7,7.3c3.9,0,7.4-3,7.4-7.1C44.9,13.4,41.7,10.3,38,10.3L38,10.3z M38.1,21.5  c-2.2,0-3.9-1.9-3.9-4.1c0-2.2,1.7-4.1,3.9-4.1c1.9,0,3.6,1.9,3.6,4.1C41.7,19.6,40,21.5,38.1,21.5z M50.4,11.2  c0-1.7,1.1-2.2,2.3-2.2c1,0,2.3,0.7,3.1,1.6L58,8.1c-1.1-1.4-3.3-2.4-5.1-2.4c-3.6,0-6.2,2.1-6.2,5.5c0,6.4,7.9,4.4,7.9,7.9  c0,1.1-1.1,2.1-2.3,2.1c-1.9,0-2.6-0.9-3.5-1.9l-2.4,2.5c1.5,1.9,3.4,2.8,5.7,2.8c3.4,0,6.1-2.1,6.1-5.4  C58.3,12,50.4,14.2,50.4,11.2 M66.9,10.1c-3.5,0-6.7,3-6.7,7.3v11.6h3.3v-6.3c1.1,1.1,2.2,1.6,3.9,1.6c3.7,0,6.9-3.1,6.9-7.1  C74.3,13.2,70.9,10.1,66.9,10.1L66.9,10.1z M67.5,21.3c-2.2,0-3.9-1.9-3.9-4.1c0-2.2,1.7-4.1,3.9-4.1c1.9,0,3.6,1.9,3.6,4.1  C71.1,19.4,69.4,21.3,67.5,21.3z M98.6,21.5c-1.9,0-2.5-0.8-2.5-2.1v-5.7h3v-2.9h-3V6.9l-3.3,1.5v11.6c0,3,2.1,4.5,4.9,4.5  c0.4,0,1,0,1.3-0.1l0.8-3C99.4,21.5,99,21.5,98.6,21.5"/>
<path class="st1" d="M89.9,13.8c-0.6-1.1-1.5-2-2.6-2.6c-0.8-0.5-1.7-0.8-2.7-0.9V6.8c1-0.4,1.6-1.3,1.6-2.4c0-1.5-1.2-2.6-2.6-2.6  c-1.5,0-2.6,1.2-2.6,2.6c0,1.1,0.6,2,1.5,2.4v3.5c-0.8,0.1-1.6,0.4-2.3,0.7c-1.5-1.1-6.4-4.9-9.3-7.1c0.1-0.2,0.1-0.5,0.1-0.8  c0-1.6-1.3-2.9-2.9-2.9c-1.6,0-2.9,1.3-2.9,2.9c0,1.6,1.3,2.9,2.9,2.9c0.5,0,1.1-0.2,1.5-0.4l0.6,0.5l8.4,6  c-0.4,0.4-0.9,0.9-1.2,1.4c-0.7,1.1-1.1,2.2-1.1,3.5v0.3c0,0.9,0.2,1.7,0.5,2.5c0.3,0.7,0.6,1.3,1.1,1.9L75,24.4  c-0.8-0.3-1.7-0.1-2.4,0.5c-0.4,0.4-0.7,1-0.7,1.6c0,0.6,0.2,1.2,0.7,1.6c0.4,0.4,1,0.7,1.6,0.7c0.6,0,1.2-0.2,1.6-0.7  c0.4-0.4,0.7-1,0.7-1.6c0-0.2,0-0.5-0.1-0.7l2.9-2.9c0.4,0.3,0.8,0.5,1.3,0.7c0.9,0.4,1.9,0.6,3,0.6h0.2c1.2,0,2.3-0.3,3.4-0.9  c1.1-0.6,2-1.4,2.7-2.5c0.7-1.1,1-2.2,1-3.5v-0.1C90.8,16.1,90.5,14.9,89.9,13.8L89.9,13.8z M86.4,19.8c-0.8,0.9-1.7,1.4-2.7,1.4  h-0.2c-0.6,0-1.1-0.2-1.7-0.5c-0.6-0.3-1.1-0.8-1.5-1.4c-0.4-0.6-0.6-1.2-0.6-1.8v-0.2c0-0.6,0.1-1.3,0.4-1.8  c0.3-0.6,0.8-1.1,1.4-1.5c0.6-0.4,1.2-0.6,1.9-0.6h0.1c0.6,0,1.2,0.1,1.8,0.4c0.6,0.3,1,0.7,1.4,1.3c0.4,0.6,0.6,1.2,0.6,1.8  c0,0.1,0,0.3,0,0.4C87.4,18.3,87.1,19.1,86.4,19.8L86.4,19.8z"/>
</svg>
