<svg width="120" height="36" viewBox="0 0 120 36" fill="none" xmlns="http://www.w3.org/2000/svg">
<path d="M22.337 26.7801C22.4386 26.8941 22.4894 27.0244 22.4894 27.1547C22.4894 27.2688 22.5233 29.9077 20.0677 31.048C19.3734 31.3575 18.5267 31.4389 17.7646 31.4552L15.8002 33.8009C16.9348 33.8172 18.4589 33.8009 19.0178 33.7357C20.0339 33.6217 21.05 33.2796 21.9475 32.7584C22.5741 32.4 23.1499 31.9439 23.6749 31.4389C24.3014 30.7873 24.8095 30.1194 25.0466 29.533C25.1651 29.2561 25.2667 28.9303 25.3514 28.5719C25.5715 27.6434 25.6732 26.1448 25.6901 24.9231H20.6605L22.337 26.7801Z" fill="#4196D4"/>
<path d="M22.0322 21.6815L20.9315 23.5873L28.4674 23.571C30.923 23.571 32.1762 22.7403 33.1414 21.6815H22.0322Z" fill="#4196D4"/>
<path d="M14.1914 19.4335C14.547 19.4009 14.8518 19.6452 14.8857 19.9873C14.9026 20.1339 15.2583 23.571 18.5775 23.571H18.9839L21.05 20.1828H25.6901V9.95294C25.6901 6.7276 24.0474 5.09864 23.9797 5.03348L23.9289 4.98461C23.1329 4.00724 22.0322 3.30678 20.779 2.93212C19.746 2.62262 18.7976 2.62262 17.6969 2.62262H12.3624C13.0229 3.29049 13.3616 4.18642 13.3616 5.29411C13.3616 5.63619 13.0737 5.89683 12.735 5.89683C12.3963 5.89683 12.1084 5.61991 12.1084 5.29411C12.1084 4.44705 11.8544 3.81176 11.3633 3.37194C10.4488 2.55746 8.94158 2.63891 8.92465 2.63891C8.90771 2.63891 8.89078 2.63891 8.89078 2.63891H3.69179C3.65793 2.63891 3.25149 2.62262 3.0144 2.85067C2.82812 3.01357 2.74345 3.29049 2.74345 3.66515V16.648C2.74345 16.7131 2.60797 19.4986 4.53853 21.3719C4.5724 21.4045 6.79086 23.5873 9.50043 23.5873H15.2583C14.1406 22.5448 13.6664 21.0787 13.5817 20.1014C13.5817 19.7756 13.8527 19.4824 14.1914 19.4335ZM21.3717 15.1656L17.3243 13.3738C18.696 10.7837 22.2015 12.3801 21.3717 15.1656Z" fill="#4196D4"/>
<path d="M38.6791 23.4081C38.5775 23.3104 38.5436 23.1964 38.5436 23.0498V8.48687C38.5436 8.32397 38.5775 8.19365 38.6791 8.09592C38.7807 7.99818 38.8823 7.94931 39.0517 7.94931H44.2676C46.5877 7.94931 48.2811 8.45429 49.3142 9.44795C50.3472 10.4579 50.8722 11.9728 50.906 13.9765C50.923 14.4163 50.9399 14.9864 50.9399 15.7032C50.9399 16.4362 50.923 17.0226 50.906 17.4624C50.8722 18.8633 50.6351 20.0199 50.1948 20.8995C49.7545 21.7792 49.0601 22.447 48.1287 22.8706C47.1804 23.3104 45.9441 23.5222 44.3861 23.5222H39.0517C38.8993 23.5547 38.7807 23.5059 38.6791 23.4081ZM44.2845 21.6977C45.3684 21.6977 46.232 21.5511 46.8586 21.2579C47.4852 20.981 47.9594 20.5086 48.2473 19.9059C48.5352 19.2869 48.6876 18.4561 48.7214 17.3973C48.7553 16.5013 48.7553 15.9475 48.7553 15.7357C48.7553 15.4914 48.7384 14.9538 48.7214 14.0905C48.6876 12.6081 48.3319 11.5167 47.6207 10.8326C46.9094 10.1484 45.7579 9.79003 44.166 9.79003H40.7113V21.714L44.2845 21.6977Z" fill="#1D3E55"/>
<path d="M54.1575 22.2027C53.243 21.2905 52.7519 20.0525 52.6672 18.4724L52.6334 17.7393L52.6672 17.0389C52.7519 15.4914 53.2599 14.2697 54.1575 13.3412C55.055 12.4127 56.2913 11.9565 57.7985 11.9565C59.4242 11.9565 60.6943 12.4615 61.5919 13.4552C62.4894 14.4651 62.9467 15.8172 62.9467 17.5276V17.9185C62.9467 18.0651 62.9128 18.1792 62.8112 18.2769C62.7096 18.3746 62.591 18.4072 62.4386 18.4072H54.6994V18.6027C54.7333 19.5312 55.0381 20.3294 55.58 20.981C56.1219 21.6489 56.8671 21.9746 57.7646 21.9746C58.4759 21.9746 59.0347 21.8443 59.475 21.5837C59.9153 21.3068 60.254 21.0461 60.4742 20.7529C60.6097 20.5737 60.7113 20.476 60.779 20.4434C60.8467 20.4108 60.9822 20.3946 61.1516 20.3946H62.1338C62.2693 20.3946 62.3878 20.4271 62.4894 20.5086C62.591 20.5737 62.6249 20.6715 62.6249 20.7855C62.6249 21.095 62.4217 21.4697 62.0152 21.9258C61.6088 22.3656 61.05 22.7565 60.3048 23.0823C59.5766 23.4081 58.7299 23.571 57.7646 23.571C56.2743 23.571 55.055 23.1149 54.1575 22.2027ZM60.9145 16.9737V16.9086C60.9145 15.8986 60.6266 15.1004 60.0677 14.4651C59.5089 13.8298 58.7468 13.5203 57.7815 13.5203C56.8163 13.5203 56.0542 13.8298 55.4953 14.4651C54.9534 15.1004 54.6655 15.9149 54.6655 16.9086V16.9737H60.9145Z" fill="#1D3E55"/>
<path d="M66.6723 23.0498C65.9611 22.7077 65.47 22.3167 65.1313 21.8932C64.7926 21.4697 64.6232 21.1276 64.6232 20.867C64.6232 20.7204 64.674 20.6063 64.7756 20.5249C64.8773 20.4434 64.9789 20.4109 65.1143 20.4109H66.0627C66.1474 20.4109 66.2151 20.4272 66.2659 20.4434C66.3167 20.476 66.3844 20.5412 66.4691 20.6389C66.8078 21.0462 67.1634 21.3719 67.5868 21.6163C68.0441 21.8769 68.3828 22.0398 69.2126 22.0398C70.0085 22.0398 70.4827 21.8932 70.9568 21.6C71.431 21.3231 71.685 20.8995 71.685 20.362C71.685 20.0036 71.5834 19.7104 71.3802 19.5149C71.177 19.3032 70.8383 19.1077 70.3303 18.9285C69.8561 18.7493 69.1279 18.5701 68.1795 18.3747C66.8925 18.0977 65.9611 17.7068 65.4361 17.2018C64.8942 16.6805 64.6402 16.029 64.6402 15.1982C64.6402 14.6769 64.8095 14.1557 65.1313 13.667C65.453 13.1783 65.9441 12.771 66.5877 12.4615C67.2312 12.152 68.0102 12.0054 68.8908 12.0054C69.8391 12.0054 70.6181 12.152 71.2955 12.4453C71.956 12.7385 72.4471 13.0968 72.7858 13.5041C73.1245 13.9113 73.2938 14.2371 73.2938 14.514C73.2938 14.6443 73.26 14.7421 73.1584 14.8398C73.0568 14.9213 72.9551 14.9701 72.8027 14.9701H71.956C71.7528 14.9701 71.6512 14.8887 71.4988 14.7421C71.2278 14.4489 71.0415 14.2371 70.8722 14.1068C70.669 13.9602 70.4488 13.8299 70.127 13.7158C69.7545 13.6018 69.3988 13.5529 68.9077 13.5529C68.1795 13.5529 67.6207 13.6996 67.2312 13.9928C66.8417 14.286 66.6554 14.6769 66.6554 15.1493C66.6554 15.4425 66.7401 15.7032 66.8925 15.9149C67.0449 16.1104 67.3667 16.3222 67.8408 16.5014C68.2981 16.6805 68.9755 16.8597 69.89 17.0389C71.2955 17.3158 72.3116 17.7231 72.8874 18.2606C73.4801 18.7819 73.768 19.4661 73.768 20.3131C73.768 20.9158 73.5817 21.486 73.2261 21.991C72.8535 22.4959 72.3116 22.8869 71.6004 23.1638C70.8891 23.4407 70.0254 23.6199 69.0263 23.6036C67.9255 23.5548 67.3836 23.3919 66.6723 23.0498Z" fill="#1D3E55"/>
<path d="M75.6139 23.4407C75.5123 23.343 75.4615 23.229 75.4615 23.0661V8.47058C75.4615 8.30769 75.5123 8.17737 75.6139 8.09592C75.7155 7.99819 75.8341 7.96561 76.0034 7.96561H77.0195C77.1719 7.96561 77.3074 8.01448 77.409 8.11221C77.5106 8.20995 77.5614 8.32398 77.5614 8.48687V15.9475L81.7274 12.6733C81.9645 12.5104 82.1169 12.3964 82.2185 12.3638C82.3201 12.3312 82.4556 12.2986 82.6757 12.2986H83.8442C83.9797 12.2986 84.0983 12.3312 84.1829 12.4127C84.2676 12.4941 84.3015 12.6081 84.3015 12.771C84.3015 12.9014 84.2168 13.048 84.0474 13.2109L79.0855 17.0878L85.1651 22.6914C85.3345 22.8543 85.4192 23.0009 85.4192 23.1312C85.4192 23.2615 85.3853 23.3756 85.3006 23.4733C85.216 23.571 85.0974 23.6036 84.9619 23.6036H83.8104C83.5733 23.6036 83.4039 23.571 83.3023 23.5385C83.2007 23.5059 83.0483 23.3919 82.862 23.229L77.5614 18.3909V23.0823C77.5614 23.229 77.5106 23.3593 77.409 23.457C77.3074 23.5547 77.1888 23.6036 77.0195 23.6036H76.0034C75.8341 23.5873 75.6986 23.5385 75.6139 23.4407Z" fill="#1D3E55"/>
<path d="M107.959 22.2516C107.079 21.3556 106.588 20.1828 106.537 18.7004L106.503 17.7719L106.537 16.8434C106.588 15.3611 107.079 14.1882 107.976 13.2923C108.874 12.3964 110.127 11.9728 111.736 11.9728C113.345 11.9728 114.598 12.4127 115.495 13.2923C116.393 14.1882 116.867 15.3611 116.935 16.8434C116.969 17.1529 116.969 17.4624 116.969 17.7719C116.969 18.0651 116.952 18.3747 116.935 18.7004C116.884 20.1828 116.393 21.3556 115.512 22.2516C114.632 23.1475 113.362 23.571 111.719 23.571C110.076 23.5873 108.84 23.1475 107.959 22.2516ZM114.005 21.1113C114.564 20.5249 114.869 19.7104 114.903 18.6027C114.92 18.4561 114.937 18.1792 114.937 17.7882C114.937 17.381 114.92 17.1041 114.903 16.9737C114.869 15.8823 114.547 15.0516 114.005 14.4651C113.446 13.8787 112.701 13.6018 111.736 13.6018C110.771 13.6018 110.025 13.8787 109.467 14.4651C108.908 15.0516 108.603 15.8661 108.569 16.9737L108.535 17.7882L108.569 18.6027C108.603 19.6941 108.925 20.5249 109.467 21.1113C110.025 21.6977 110.771 21.9747 111.736 21.9747C112.701 21.9747 113.463 21.6814 114.005 21.1113Z" fill="#1D3E55"/>
<path d="M105.47 12.038C105.097 12.038 104.725 12.0217 104.301 12.0217C102.777 12.0217 101.846 12.5267 101.084 13.1946V12.4941C101.084 12.4941 101.101 12.2824 100.864 12.2824H99.3226C99.3226 12.2824 99.1194 12.2661 99.1194 12.4941V23.3593C99.1194 23.3593 99.1025 23.571 99.3396 23.571H99.8815H100.898C100.898 23.571 101.101 23.5873 101.101 23.3593V16.9086C101.135 15.8172 101.473 14.9376 102.066 14.4C102.693 13.8299 103.268 13.7973 104.335 13.7973C104.776 13.7973 105.131 13.7973 105.504 13.7973C105.673 13.7973 105.673 13.6507 105.673 13.6507V12.1683C105.639 12.1846 105.639 12.038 105.47 12.038ZM101.067 16.9412V16.9086V16.9412Z" fill="#1D3E55"/>
<path d="M97.3243 16.9086C97.2735 15.4262 96.7824 14.2534 95.8848 13.3575C94.9873 12.4615 93.7341 12.038 92.1253 12.038C90.5842 12.038 89.6698 12.6407 88.9077 13.3249V12.4941C88.9077 12.4941 88.9246 12.2823 88.6875 12.2823H87.1465C87.1465 12.2823 86.9433 12.266 86.9433 12.4941V27.3176C86.9433 27.3176 86.9263 27.5294 87.1634 27.5294H87.7053H88.7214C88.7214 27.5294 88.9246 27.5457 88.9246 27.3176V22.3819C89.6359 23.066 90.4826 23.6199 92.1422 23.6199C93.768 23.6199 95.0381 23.1801 95.9356 22.3004C96.8162 21.4045 97.2904 20.2317 97.3582 18.7493C97.392 18.4398 97.392 18.1303 97.392 17.8208C97.3751 17.5276 97.3582 17.2181 97.3243 16.9086ZM95.2921 18.6353C95.2582 19.7267 94.9365 20.5575 94.3946 21.1439C93.8357 21.7303 93.0906 22.0072 92.1253 22.0072C91.16 22.0072 90.4149 21.7303 89.856 21.1439C89.2972 20.5575 88.9924 19.743 88.9585 18.6353L88.9246 17.8208L88.9585 17.0063C88.9924 15.9149 89.3141 15.0841 89.856 14.4977C90.4149 13.9113 91.16 13.6344 92.1253 13.6344C93.0906 13.6344 93.8357 13.9113 94.3946 14.4977C94.9534 15.0841 95.2582 15.8986 95.2921 17.0063C95.3091 17.1529 95.326 17.4298 95.326 17.8208C95.3091 18.228 95.2921 18.505 95.2921 18.6353Z" fill="#1D3E55"/>
</svg>
